<?xml version="1.0" encoding="utf-8"?>
<!-- Generator: Adobe Illustrator 25.4.1, SVG Export Plug-In . SVG Version: 6.00 Build 0)  -->
<svg version="1.1" id="Layer_1" xmlns="http://www.w3.org/2000/svg" xmlns:xlink="http://www.w3.org/1999/xlink" x="0px" y="0px"
	 viewBox="0 0 950 950" style="enable-background:new 0 0 950 950;" xml:space="preserve">
<style type="text/css">
	.st0{clip-path:url(#SVGID_00000139264511208014759960000010680997415348417157_);}
	.st1{fill:#D37D42;}
	.st2{fill:#F7AD62;}
	.st3{fill:#575756;}
	.st4{fill:none;stroke:#575756;stroke-width:0.15;stroke-miterlimit:10;}
</style>
<g>
	<defs>
		<rect id="SVGID_1_" x="-59" y="-64.9" width="1077.7" height="1077.7"/>
	</defs>
	<clipPath id="SVGID_00000111901066070443147430000002372551386278155649_">
		<use xlink:href="#SVGID_1_"  style="overflow:visible;"/>
	</clipPath>
	<g style="clip-path:url(#SVGID_00000111901066070443147430000002372551386278155649_);">
		<path class="st1" d="M383.4,527c-5.9,2.3-13.1,1.9-19.4,2.4c-7,0.6-13.5,1.4-20.4-0.5c-6.2-1.9-12.3-4.1-18.3-6.6
			c-15.9-5.8-45.6-34.3-53.1-41.6c-1.3-1.2-2.5-2.4-3.9-3.5l-6.7-5.6c-5.2-3.2-11.4-4.4-17.4-3.2c-9.7,2.2-63.1,54.6-69.6,58.8
			c-5.7,3.7-13.7,8.2-23.1,6.5c-2.9-0.7-5.7-1.6-8.5-2.6c-5.5-1.8-9.9-5.5-13.9-9.6c-1.7-1.9-3.5-3.7-5.4-5.4
			c-2.3-1.9-5.2-2.8-7.3-5c-1.2-1.3-4.5-5.1-2-6.7c1.8-1.2,7,0.6,9.1,0.8c3.1,0.2,6.4-0.4,9.3,0.5s6.1,2.2,9.1,3.5
			c2.7,1.2,5.2,3.2,8.2,3.7c3.1,0.5,6.4-0.6,9.2-1.9c5.5-2.6,10-7.1,14.8-10.8c5-4,9.4-8.2,14-12.6c8.4-8.1,19.7-15.3,24.6-26.2
			c2.2-5,5.8-7.3,10.6-9.6c5.7-2.8,9.7-8.3,14-12.7c2.3-2.3,4.5-4.8,6.6-7.3c3.1-3.7,3.1-3.7,4.9-5.1c5.1-4,9.6-1,13.5,2.1
			c5.2,4,9.5,9,14.4,13.3c5.2,4.5,10.9,8.6,16.4,12.7c5.2,3.8,10.4,8.9,16.5,11.3c2.5,1,4.8,1.7,7.3,0.2c2.1-1.3,3.8-3.2,4.6-5.5
			c0.6-1.8,0.9-3.7,1-5.6c0.1-2.8,43.5,9.3,43.5,9.3L383.4,527"/>
		<path class="st1" d="M735.2,517.4c-2.7,1.8,1.4,5,2.9,6.5c4.4,4.6,9.5,8.4,14.5,12.4c5.4,4.4,10.3,9.3,15.8,13.5
			c5.3,4,10.8,7.8,15.8,12.1c9.6,8.1,16.5,18.7,26.4,26.5c10.8,8.5,23,15.7,34.7,23s23.1,14.6,34.9,21.5c5.7,3.4,11.7,6.2,17.4,9.4
			c2,1.1,14.2,7.8,8.2,9.7c-2.7,0.8-6.1,1-8.9,1.2c-3,0.3-6.8,0.5-9.6-0.7c-2.2-1-3.9-2.5-6.3-3.2c-2.8-0.8-5.6-1-8.4-1.8
			c-5.1-1.3-8.9-6-13.5-8.9c-5.3-3.3-10.4-7-15.5-10.5c-11.3-7.8-22.2-15.8-33.7-23.3c-5.7-3.8-29.2-16-34.7-19.5s-10.6-7.8-16-11.5
			c-5.7-3.9-11.6-7.6-17.6-11c-11.7-6.7-23.2-14-34.4-21.5c-2.5-1.7-5.1-3.5-7.8-5s-5.7-2.5-8.3-4.3c-4.9-3.5-9.8-8.7-18.5-10.6
			l-9.3-0.6l12.8-13.4"/>
		<path class="st1" d="M737.6,248.5c1.9-0.1,9.2-5.3,10.7-6.4c2.8-2.1,5.7-4.1,8.3-6.4c1-0.9,2-1.8,2.9-2.8c0.7-0.8,1.6-2.9,2.5-3.5
			c3.2-2.2,1.4,3.5,1,4.9c-1.1,3-2.5,5.9-4.2,8.6c-1.3,2.6-2.5,5.3-3.4,8.1c-0.6,1.7-1.2,3.8-1.6,5c-0.6,2.4-1.9,6.8-2.5,8.2
			c-1,2.4-5.5,13.1-3.3,15.4l-12-9.3L737.6,248.5z"/>
		<path class="st2" d="M383.4,527c5.6-2.2,10.2-7.5,15.1-11.1c4.9-3.8,10.4-6.8,16.2-8.8c6.2-2,12.9-3.4,19.4-2.9
			c8.1,0.7,12.6,2.2,18.3,3.2c3.7,0.7,25.5,6.8,32.8,9c5.1,1.5,28.4,6.1,35.2,7.3c3.1,0.5,35.7,5.8,38.9,5.9s24.4,1.6,36.3,1.5
			c7.5-0.1,30.4,0.7,38.3-1.2c6.4-1.5,12.7-3.4,19.1-4.7c1.9-0.4,12.7-3.3,14.6-3.7c2.8-0.5,6.2,0.3,9.1,1.7
			c0,0,14.6,12.8,26.3,11.9s27.5-11.5,34-15.9c3-2.1,6.3-3.7,9.8-4.6c6.3-1.2,11.8-5.1,18.1-6.7c3.3-0.8,6.7-1.2,10.1-1.8
			c2.9-0.5,4.7-1.8,7.2-3.2c11.4-6.5,26.7-8.8,39.4-5.6c13,3.3,26,7.7,38.8,11.9c12.8,4.2,25.2,9.4,36.4,16.8
			c2.7,1.9,5.5,3.5,8.4,4.9c2.3,0.8,4.4,2.1,6.2,3.6c1.9,2,4.2,3.4,6.8,4.1c3,0.7,6,1.2,9,1.6c1.9,0.3,6.2,1.7,6.5-1.6
			c0.2-2.3-3.3-4.8-4.7-6.1c-4.4-4.1-7-9.1-10.3-14c-3.4-5.2-8.7-6.9-13.8-10c-5.7-3.5-11.7-5.3-18.2-6.9
			c-13.6-3.4-27.1-6.9-40.5-11.1c-6.4-1.9-12.7-4.2-18.9-6.8c-5.8-2.5-11.2-6-17.4-7.8c-13-3.7-26,0-38.9,2.2
			c-7.3,1.2-14.6,1.8-21.9,3.1c-5.1,0.9-13.4,3.8-17.3-1.2c-3.6-4.5-0.1-11.1,1.9-15.5c2.6-5.8,1.8-12.9,0.8-19
			c-1.2-7-1.7-14.1-1.5-21.2c0.2-6.7,2.4-13.1,4.3-19.5c2.1-6.9,4.2-13.8,6.5-20.7c1.9-5.9,11.5-28.3,12.6-31.7
			c1.8-5.1,8.8-7.4,13.3-8.5c6.8-1.6,13.7-1.7,20.5-3.6c6.3-1.8,12-0.6,18.2-1.1c6-0.5,7.6-4.2,10.6-8.7c1.7-2.5,3.8-3.1,4.1-6.3
			c0.2-2.4,0.5-4.7-0.8-6.8c-1-1.8-2.9-2.9-5-2.8c-2.7,0-4.8-1.2-7-2.6c-5.4-3.4-10.7-6.9-16.2-10.3s-11.2-6.9-16.7-10.5
			c-5.1-3.4-9.7-7.6-15-10.6c-2.7-1.5-5.5-2.6-8.5-3.4c-1.4-0.3-2.1-0.7-4.1-1c-0.4-0.1-0.8-0.1-1.1-0.2l-0.7-0.2
			c-5.2-1.1-8.8-32.8-9.2-34.7c-0.6-3-0.9-6.2-2.2-9c-1-2-2.9-4.3-5.4-4.5c-2.1-0.1-4.2,2-5.8,3.4c-8.5,7.4-11.4,20.8-10.3,31.5
			c0.6,6,3,11.6,1.2,17.7s-4.6,11.8-6.7,17.7c-1.2,3.2-4.9,14.6-5.5,17.1c-1.3,5.7-2.2,11.5-3.8,17.1c-2.1,7.6-8.8,29.7-9.9,33.4
			c-0.8,2.7-6.2,12.4-7.8,14.9c-6.3,10.3-20.8,15.6-32.2,16.5c-6.8,0.6-13.7,0-20.5-0.2c-7-0.2-55.6,5.7-62.8,5.9
			c-6.9,0.1-33.7-0.1-40.2-0.9c-13.9-1.5-28-2.2-42-2.1c-6.8,0.1-13.5-1-20.2-1s-32.9-4.6-39.4-5.6s-32.3-7.6-38.9-8.8
			c-7-1.3-27.2-9.3-39.8-4.5c-4.9,1.9-9,7.8-11.3,12.3c-3.7,7.3-8.4,14-11.6,21.5c-3.3,7.7-4.2,16.2-2.6,24.4
			c0.5,3.1,0.9,6.3,1.1,9.4c0.1,2,0.3,4.9,0.4,7.6v0.9c0-0.5,0.3,4.5,0.3,4.5c0.2,4.4-0.4,8.8-1.8,13c-3.6,10.6-12.7,18.4-23.8,20.3
			c-15.4,2.7-45.2,8.3-55.9,13.2c-9.1,4.1-39.4,47.5-47.2,59.8c-1,1.7-2,3.4-2.8,5.2c-0.8,1.6-1.9,3.1-3.3,4.3
			c-3.9,3.8-8,7.4-12.3,10.7c-5.2,4.3-10.9,6.7-17.2,9.1c-3.5,1.4-6.9,2.7-10.5,3.8c-2.9,0.9-6.1,1.2-8.8,2.6
			c-5.4,2.9-8.1,9.6-12,14.1c-1.2,1.4-6.1,4.4-4,6.5c1.4,1.4,6.7,0.1,8.4-0.2c3.6-0.7,6.8-2.2,10.5-2.6s7.4-0.6,11.1-1.1
			c7-1,13.8-3,20.9-4c6.9-1,11.4-5.2,15.9-10.1c9.1-9.8,16.5-21,24.7-31.7c8.6-11,18.1-21.3,28.3-30.8c4.9-4.6,9.9-8.8,16.3-11.2
			c6.8-2.5,13.9-4,21.1-4.3c15-0.9,30.5,0.9,45.5,1.6c14.3,0.7,27.1,5.8,42.9,3.6c0,0,46.7-7,39-53.8"/>
		<path class="st3" d="M195.3,682.7c0.5-0.3,0.6-0.9,0.3-1.4c0-0.1-0.1-0.1-0.1-0.2l-1.3-1.6l3.3-2.6l2.9,3.6c1.4,1.8,1.2,3-0.1,4
			c-0.6,0.5-1.1,0.8-1.1,0.8l0.1,0.1c0,0,4.9-1.2,8.8,3.9c4.2,5.4,2.7,12.2-3.6,17.1c-6.4,5-13.6,4.4-17.7-0.9
			c-2.1-2.4-2.7-5.7-1.6-8.7l-0.1-0.1c0,0-0.7,0.6-1.7,1.5l-8.9,7l-3-3.9L195.3,682.7z M189.6,702.5c2.5,3.2,7.2,3.7,11.7,0.1
			c4.4-3.4,5.4-8,2.7-11.3c-2.4-3-6.7-4.1-11.8-0.1C188.7,694,186.6,698.7,189.6,702.5"/>
		<path class="st4" d="M195.3,682.7c0.5-0.3,0.6-0.9,0.3-1.4c0-0.1-0.1-0.1-0.1-0.2l-1.3-1.6l3.3-2.6l2.9,3.6c1.4,1.8,1.2,3-0.1,4
			c-0.6,0.5-1.1,0.8-1.1,0.8l0.1,0.1c0,0,4.9-1.2,8.8,3.9c4.2,5.4,2.7,12.2-3.6,17.1c-6.4,5-13.6,4.4-17.7-0.9
			c-2.1-2.4-2.7-5.7-1.6-8.7l-0.1-0.1c0,0-0.7,0.6-1.7,1.5l-8.9,7l-3-3.9L195.3,682.7z M189.6,702.5c2.5,3.2,7.2,3.7,11.7,0.1
			c4.4-3.4,5.4-8,2.7-11.3c-2.4-3-6.7-4.1-11.8-0.1C188.7,694,186.6,698.7,189.6,702.5z"/>
		<path class="st3" d="M220,718.9l0.8,0.8l0.2-0.2c3.3-3.1,3.4-5.4,0.6-8.3c-0.8-0.9-3.1-2.9-4.3-1.7l-1.1,1l-3.1-3.4l1.9-1.7
			c3.1-2.8,7.9,1.4,9.5,3.2c5.6,6.1,4,10.7-0.2,14.5l-8,7.4c-0.4,0.3-0.5,1-0.2,1.4c0,0.1,0.1,0.1,0.2,0.2l1.4,1.5l-3.1,2.8
			l-3.1-3.4c-1.5-1.7-1.4-3.1,0-4.3c0.4-0.4,0.8-0.7,1.2-1l-0.1-0.1c-3.3,1.1-6.9,0.1-9.2-2.5c-3-3.2-4-8.2-0.2-11.7
			C209.2,707.9,217.2,715.7,220,718.9 M207,723.3c2.8,3,7.8,2,10.6-0.5l0.6-0.6l-0.9-0.9c-2.5-2.7-7.2-7.5-10.6-4.3
			C205.2,718.4,204.8,720.9,207,723.3"/>
		<path class="st4" d="M220,718.9l0.8,0.8l0.2-0.2c3.3-3.1,3.4-5.4,0.6-8.3c-0.8-0.9-3.1-2.9-4.3-1.7l-1.1,1l-3.1-3.4l1.9-1.7
			c3.1-2.8,7.9,1.4,9.5,3.2c5.6,6.1,4,10.7-0.2,14.5l-8,7.4c-0.4,0.3-0.5,1-0.2,1.4c0,0.1,0.1,0.1,0.2,0.2l1.4,1.5l-3.1,2.8
			l-3.1-3.4c-1.5-1.7-1.4-3.1,0-4.3c0.4-0.4,0.8-0.7,1.2-1l-0.1-0.1c-3.3,1.1-6.9,0.1-9.2-2.5c-3-3.2-4-8.2-0.2-11.7
			C209.2,707.9,217.1,715.7,220,718.9z M207,723.3c2.8,3,7.8,2,10.6-0.5l0.6-0.6l-0.9-0.9c-2.5-2.7-7.2-7.5-10.6-4.3
			C205.2,718.4,204.8,720.9,207,723.3z"/>
		<path class="st3" d="M243.9,728c4.7,4.3,3.4,8.5,3.4,8.5l0.1,0.1c0,0,0.3-0.3,0.5-0.6c1-1.1,2.3-1.4,3.8,0l3.5,3.2l-2.8,3.1
			l-1.5-1.4c-0.4-0.4-1-0.5-1.4-0.1c0,0-0.1,0.1-0.1,0.1l-13,14.2c-5.7,6.2-12.6,4.3-17.4-0.1c-2.2-2.1-3.9-4.6-5-7.5l3.9-1.8
			c0.9,2.3,2.2,4.3,4,6c3.3,3,7.3,4,10.8,0.2l1.2-1.3c0.5-0.6,1.2-1.1,1.2-1.1l-0.1-0.1c-2.8,0.8-5.5,0.2-8.3-2.3
			c-5.2-4.8-4.6-11.9,0.4-17.4S238.7,723.2,243.9,728 M241.2,742.9c4.5-4.9,3.4-8.5,0.5-11.2c-3.3-3-7.3-2.3-10.8,1.5
			s-4,8.5-0.6,11.6C232.8,747.1,236.6,747.7,241.2,742.9"/>
		<path class="st4" d="M243.9,728c4.7,4.3,3.4,8.5,3.4,8.5l0.1,0.1c0,0,0.3-0.3,0.5-0.6c1-1.1,2.3-1.4,3.8,0l3.5,3.2l-2.8,3.1
			l-1.5-1.4c-0.4-0.4-1-0.5-1.4-0.1c0,0-0.1,0.1-0.1,0.1l-13,14.2c-5.7,6.2-12.6,4.3-17.4-0.1c-2.2-2.1-3.9-4.6-5-7.5l3.9-1.8
			c0.9,2.3,2.2,4.3,4,6c3.3,3,7.3,4,10.8,0.2l1.2-1.3c0.5-0.6,1.2-1.1,1.2-1.1l-0.1-0.1c-2.8,0.8-5.5,0.2-8.3-2.3
			c-5.2-4.8-4.6-11.9,0.4-17.4S238.6,723.2,243.9,728z M241.1,742.8c4.5-4.9,3.4-8.5,0.5-11.2c-3.3-3-7.3-2.3-10.8,1.5
			s-4,8.5-0.6,11.6C232.7,747.1,236.6,747.8,241.1,742.8L241.1,742.8z"/>
		<path class="st3" d="M263.5,757.9l0.9,0.7l0.2-0.2c2.8-3.5,2.4-5.8-0.7-8.3c-1-0.7-3.5-2.3-4.5-1l-0.9,1.2l-3.6-2.8l1.6-2
			c2.6-3.3,8,0.1,9.9,1.6c6.5,5.1,5.6,9.9,2.2,14.3l-6.7,8.6c-0.4,0.4-0.4,1,0,1.4c0.1,0.1,0.1,0.1,0.2,0.1l1.6,1.3l-2.5,3.3
			l-3.6-2.8c-1.8-1.4-1.8-2.8-0.7-4.3c0.3-0.4,0.6-0.8,1-1.1l-0.1-0.1c-3.1,1.6-6.8,1.2-9.5-1c-3.5-2.7-5.2-7.5-2.1-11.5
			C251,748.8,260.1,755.2,263.5,757.9 M251.3,764.3c3.3,2.5,8,0.8,10.4-2.2l0.5-0.7l-1-0.8c-2.9-2.3-8.3-6.2-11.2-2.5
			C248.8,759.8,248.8,762.4,251.3,764.3"/>
		<path class="st4" d="M263.5,757.9l0.9,0.7l0.2-0.2c2.8-3.5,2.4-5.8-0.7-8.3c-1-0.7-3.5-2.3-4.5-1l-0.9,1.2l-3.6-2.8l1.6-2
			c2.6-3.3,8,0.1,9.9,1.6c6.5,5.1,5.6,9.9,2.2,14.3l-6.7,8.6c-0.4,0.4-0.4,1,0,1.4c0.1,0.1,0.1,0.1,0.2,0.1l1.6,1.3l-2.5,3.3
			l-3.6-2.8c-1.8-1.4-1.8-2.8-0.7-4.3c0.3-0.4,0.6-0.8,1-1.1l-0.1-0.1c-3.1,1.6-6.8,1.2-9.5-1c-3.5-2.7-5.2-7.5-2.1-11.5
			C251,748.8,260.1,755.2,263.5,757.9z M251.3,764.3c3.3,2.5,8,0.8,10.4-2.2l0.5-0.7l-1-0.8c-2.9-2.3-8.3-6.2-11.2-2.5
			C248.8,759.8,248.8,762.4,251.3,764.3z"/>
		<path class="st3" d="M283.6,754.6c0.4-0.4,0.3-1-0.1-1.4c-0.1-0.1-0.1-0.1-0.2-0.1l-1.7-1.2l2.4-3.5l4,2.7
			c1.9,1.3,2.1,2.6,0.8,4.5l-15.4,22.4c-0.4,0.4-0.3,1,0.1,1.4c0.1,0.1,0.1,0.1,0.2,0.1l1.7,1.2l-2.4,3.4l-4-2.8
			c-1.9-1.3-2.1-2.6-0.8-4.5L283.6,754.6z"/>
		<path class="st4" d="M283.6,754.6c0.4-0.4,0.3-1-0.1-1.4c-0.1-0.1-0.1-0.1-0.2-0.1l-1.7-1.2l2.4-3.5l4,2.7
			c1.9,1.3,2.1,2.6,0.8,4.5l-15.4,22.4c-0.4,0.4-0.3,1,0.1,1.4c0.1,0.1,0.1,0.1,0.2,0.1l1.7,1.2l-2.4,3.4l-4-2.8
			c-1.9-1.3-2.1-2.6-0.8-4.5L283.6,754.6z"/>
		<path class="st3" d="M294.2,762c0.3-0.4,0.3-1.1-0.2-1.4c-0.1,0-0.1-0.1-0.2-0.1l-1.8-1.1l2.2-3.6l4.2,2.5c2,1.2,2.3,2.5,1.1,4.4
			l-4.3,7.2c-0.6,1-1.2,1.8-1.2,1.8l0.1,0c0,0,4.1-2.5,9.2,0.6c5.9,3.5,6.8,10.5,2.7,17.2c-4.2,7-11.1,9-16.9,5.5
			c-2.8-1.6-4.6-4.6-4.7-7.8h-0.1c-0.3,0.6-0.6,1.2-0.9,1.7l-0.9,1.5l-4-2.4L294.2,762z M290.8,791.1c3.5,2.1,8,0.9,11-4
			c2.9-4.8,2.1-9.4-1.5-11.6c-3.2-2-7.7-1.5-11,4.1C286.9,783.5,286.6,788.6,290.8,791.1"/>
		<path class="st4" d="M294.2,762c0.3-0.4,0.3-1.1-0.2-1.4c-0.1,0-0.1-0.1-0.2-0.1l-1.8-1.1l2.2-3.6l4.2,2.5c2,1.2,2.3,2.5,1.1,4.4
			l-4.3,7.2c-0.6,1-1.2,1.8-1.2,1.8l0.1,0c0,0,4.1-2.5,9.2,0.6c5.9,3.5,6.8,10.5,2.7,17.2c-4.2,7-11.1,9-16.9,5.5
			c-2.8-1.6-4.6-4.6-4.7-7.8h-0.1c-0.3,0.6-0.6,1.2-0.9,1.7l-0.9,1.5l-4-2.4L294.2,762z M290.8,791.1c3.5,2.1,8,0.9,11-4
			c2.9-4.8,2.1-9.4-1.5-11.6c-3.2-2-7.7-1.5-11,4.1C286.9,783.5,286.6,788.6,290.8,791.1z"/>
		<path class="st3" d="M325,795.6l1,0.5l0.1-0.2c2-4,1.2-6.2-2.4-8c-1.1-0.5-3.9-1.6-4.6-0.1l-0.6,1.3l-4.1-2l1.1-2.3
			c1.9-3.8,7.8-1.5,10.1-0.4c7.4,3.7,7.5,8.6,5,13.6l-4.8,9.8c-0.3,0.5-0.2,1.1,0.3,1.4c0.1,0,0.1,0.1,0.2,0.1l1.9,0.9l-1.9,3.8
			l-4.1-2c-2-1-2.4-2.4-1.6-4c0.2-0.5,0.5-0.9,0.8-1.3h-0.1c-2.7,2.2-6.5,2.5-9.5,0.9c-4-2-6.6-6.3-4.4-10.8
			c3.6-7.4,13.9-2.9,17.7-1 M314.4,804.5c3.7,1.8,8-0.9,9.7-4.3l0.4-0.8l-1.1-0.6c-3.3-1.6-9.4-4.4-11.5-0.2
			C311,800.5,311.5,803,314.4,804.5"/>
		<path class="st4" d="M325,795.6l1,0.5l0.1-0.2c2-4,1.2-6.2-2.4-8c-1.1-0.5-3.9-1.6-4.6-0.1l-0.6,1.3l-4.1-2l1.1-2.3
			c1.9-3.8,7.8-1.5,10.1-0.4c7.4,3.7,7.5,8.6,5,13.6l-4.8,9.8c-0.3,0.5-0.2,1.1,0.3,1.4c0.1,0,0.1,0.1,0.2,0.1l1.9,0.9l-1.9,3.8
			l-4.1-2c-2-1-2.4-2.4-1.6-4c0.2-0.5,0.5-0.9,0.8-1.3h-0.1c-2.7,2.2-6.5,2.5-9.5,0.9c-4-2-6.6-6.3-4.4-10.8
			C311,789.2,321.2,793.7,325,795.6z M314.4,804.3c3.7,1.8,8-0.9,9.7-4.3l0.4-0.8l-1.1-0.6c-3.3-1.6-9.4-4.4-11.5-0.2
			C311,800.4,311.5,802.9,314.4,804.3L314.4,804.3z"/>
		<path class="st3" d="M356.3,793.4c0.3-0.5,0.1-1.1-0.4-1.3c-0.1,0-0.1-0.1-0.2-0.1l-1.9-0.7l1.5-3.9l4.5,1.7
			c2.1,0.8,2.7,2,1.9,4.2l-9.6,25.4c-0.3,0.5-0.1,1.1,0.4,1.4c0.1,0,0.2,0.1,0.2,0.1l1.9,0.7l-1.5,3.9l-4.5-1.7
			c-2.1-0.8-2.7-2-1.9-4.2L356.3,793.4z"/>
		<path class="st4" d="M356.3,793.4c0.3-0.5,0.1-1.1-0.4-1.3c-0.1,0-0.1-0.1-0.2-0.1l-1.9-0.7l1.5-3.9l4.5,1.7
			c2.1,0.8,2.7,2,1.9,4.2l-9.6,25.4c-0.3,0.5-0.1,1.1,0.4,1.4c0.1,0,0.2,0.1,0.2,0.1l1.9,0.7l-1.5,3.9l-4.5-1.7
			c-2.1-0.8-2.7-2-1.9-4.2L356.3,793.4z"/>
		<path class="st3" d="M376.7,815.7l1.1,0.3l0.1-0.2c1.4-4.3,0.2-6.3-3.6-7.5c-1.2-0.4-4.1-1-4.6,0.6l-0.4,1.4l-4.4-1.4l0.8-2.4
			c1.2-4,7.5-2.7,9.9-1.9c7.9,2.5,8.7,7.3,7,12.7l-3.2,10.4c-0.2,0.5,0,1.1,0.5,1.3c0.1,0,0.1,0.1,0.2,0.1l2,0.6l-1.2,4l-4.4-1.4
			c-2.2-0.7-2.7-2-2.2-3.8c0.1-0.5,0.3-1,0.5-1.4h-0.1c-2.3,2.6-6,3.5-9.3,2.4c-4.2-1.3-7.5-5.2-6-10
			C361.8,811.6,372.6,814.5,376.7,815.7 M367.5,826.1c4,1.2,7.8-2.1,8.9-5.7l0.2-0.8l-1.2-0.4c-3.5-1.1-10-2.9-11.4,1.6
			C363.5,822.7,364.4,825.1,367.5,826.1"/>
		<path class="st4" d="M376.7,815.7l1.1,0.3l0.1-0.2c1.4-4.3,0.2-6.3-3.6-7.5c-1.2-0.4-4.1-1-4.6,0.6l-0.4,1.4l-4.4-1.4l0.8-2.4
			c1.2-4,7.5-2.7,9.9-1.9c7.9,2.5,8.7,7.3,7,12.7l-3.2,10.4c-0.2,0.5,0,1.1,0.5,1.3c0.1,0,0.1,0.1,0.2,0.1l2,0.6l-1.2,4l-4.4-1.4
			c-2.2-0.7-2.7-2-2.2-3.8c0.1-0.5,0.3-1,0.5-1.4h-0.1c-2.3,2.6-6,3.5-9.3,2.4c-4.2-1.3-7.5-5.2-6-10
			C361.8,811.6,372.6,814.4,376.7,815.7z M367.5,826c4,1.2,7.8-2.1,8.9-5.7l0.2-0.8l-1.2-0.4c-3.5-1.1-10-2.9-11.4,1.6
			C363.6,822.7,364.5,825.1,367.5,826z"/>
		<path class="st3" d="M391.9,815.6c0.2-0.5-0.1-1.1-0.6-1.3c-0.1,0-0.1,0-0.2,0l-2-0.5l0.9-4.1l4.7,1c2.3,0.5,3,1.7,2.5,3.8
			l-2.6,11.8c-0.8,3.5-0.7,6.4,3.2,7.2c5.1,1.1,9.1-2.7,10.2-7.6l2.6-11.7l4.8,1.1l-4.4,19.8c-0.2,0.5,0.1,1.1,0.6,1.3
			c0.1,0,0.2,0,0.2,0.1l2,0.5l-0.9,4.1l-4.6-1c-2.1-0.5-2.9-1.7-2.5-3.5l0.2-0.9c0.2-0.8,0.4-1.4,0.4-1.4h-0.1
			c-2.5,3.2-6.5,4.6-10.5,3.7c-5.6-1.3-7.8-4.8-6.4-11.5L391.9,815.6z"/>
		<path class="st4" d="M391.9,815.6c0.2-0.5-0.1-1.1-0.6-1.3c-0.1,0-0.1,0-0.2,0l-2-0.5l0.9-4.1l4.7,1c2.3,0.5,3,1.7,2.5,3.8
			l-2.6,11.8c-0.8,3.5-0.7,6.4,3.2,7.2c5.1,1.1,9.1-2.7,10.2-7.6l2.6-11.7l4.8,1.1l-4.4,19.8c-0.2,0.5,0.1,1.1,0.6,1.3
			c0.1,0,0.2,0,0.2,0.1l2,0.5l-0.9,4.1l-4.6-1c-2.1-0.5-2.9-1.7-2.5-3.5l0.2-0.9c0.2-0.8,0.4-1.4,0.4-1.4h-0.1
			c-2.5,3.2-6.5,4.6-10.5,3.7c-5.6-1.3-7.8-4.8-6.4-11.5L391.9,815.6z"/>
		<path class="st3" d="M424,812c0.1-0.5-0.2-1.1-0.7-1.2c-0.1,0-0.2,0-0.2,0l-2-0.3l0.6-4.2l4.8,0.7c2.2,0.3,3.1,1.1,2.8,3.3
			l-2.2,16.4l2.3,0.3c1,0.2,2-0.1,2.8-0.7l7-7.4l5.6,0.8l-8.1,8.5c-0.6,0.7-1.3,1.3-2.2,1.6v0.1c0.7,0.5,1.2,1.3,1.5,2.1l2.8,7.4
			c0.3,0.8,0.8,1.1,2,1.3l1.5,0.2l-0.6,4.2l-3.5-0.5c-2.4-0.3-3-0.8-3.9-2.9l-3.4-9.1c-0.5-0.9-1.4-1.4-2.4-1.4l-1.9-0.3l-1.6,11.9
			l-4.9-0.7L424,812z"/>
		<path class="st4" d="M424,812c0.1-0.5-0.2-1.1-0.7-1.2c-0.1,0-0.2,0-0.2,0l-2-0.3l0.6-4.2l4.8,0.7c2.2,0.3,3.1,1.1,2.8,3.3
			l-2.2,16.4l2.3,0.3c1,0.2,2-0.1,2.8-0.7l7-7.4l5.6,0.8l-8.1,8.5c-0.6,0.7-1.3,1.3-2.2,1.6v0.1c0.7,0.5,1.2,1.3,1.5,2.1l2.8,7.4
			c0.3,0.8,0.8,1.1,2,1.3l1.5,0.2l-0.6,4.2l-3.5-0.5c-2.4-0.3-3-0.8-3.9-2.9l-3.4-9.1c-0.5-0.9-1.4-1.4-2.4-1.4l-1.9-0.3l-1.6,11.9
			l-4.9-0.7L424,812z"/>
		<path class="st3" d="M449.5,825.3c0.1-0.5-0.2-1.1-0.8-1.2c-0.1,0-0.1,0-0.2,0l-2.1-0.2l0.3-4.2l4.8,0.4c2.3,0.2,3.2,1.2,3,3.5
			l-1.3,17c-0.1,0.5,0.2,1.1,0.8,1.2c0.1,0,0.1,0,0.2,0l2.1,0.2l-0.3,4.2l-4.8-0.4c-2.3-0.2-3.1-1.2-3-3.5L449.5,825.3z
			 M450.8,809.9l4.4,0.3l-0.4,5.1l-4.4-0.3L450.8,809.9z"/>
		<path class="st4" d="M449.5,825.3c0.1-0.5-0.2-1.1-0.8-1.2c-0.1,0-0.1,0-0.2,0l-2.1-0.2l0.3-4.2l4.8,0.4c2.3,0.2,3.2,1.2,3,3.5
			l-1.3,17c-0.1,0.5,0.2,1.1,0.8,1.2c0.1,0,0.1,0,0.2,0l2.1,0.2l-0.3,4.2l-4.8-0.4c-2.3-0.2-3.1-1.2-3-3.5L449.5,825.3z
			 M450.8,809.9l4.4,0.3l-0.4,5.1l-4.4-0.3L450.8,809.9z"/>
		<path class="st3" d="M463.2,826.3c0.1-0.5-0.3-1.1-0.9-1.1c-0.1,0-0.2,0-0.2,0h-2.1l0.1-4.2l4.7,0.1c2.2,0,3.2,1,3.2,2.9v1
			c0,0.5,0,1-0.1,1.5h0.1c1.8-3.6,5.6-5.9,9.7-5.7c6.1,0.1,8.8,3.4,8.7,9.9l-0.2,11.1c-0.1,0.5,0.3,1,0.9,1.1c0.1,0,0.2,0,0.2,0h2.1
			l-0.1,4.2l-4.8-0.1c-2.3,0-3.2-1-3.2-3.3l0.2-12c0-3.6-0.6-6.4-4.7-6.5c-3.8-0.1-7.2,2.5-8.2,6.2c-0.4,1.1-0.5,2.3-0.5,3.4
			l-0.2,12l-4.9-0.1L463.2,826.3z"/>
		<path class="st4" d="M463.2,826.3c0.1-0.5-0.3-1.1-0.9-1.1c-0.1,0-0.2,0-0.2,0h-2.1l0.1-4.2l4.7,0.1c2.2,0,3.2,1,3.2,2.9v1
			c0,0.5,0,1-0.1,1.5h0.1c1.8-3.6,5.6-5.9,9.7-5.7c6.1,0.1,8.8,3.4,8.7,9.9l-0.2,11.1c-0.1,0.5,0.3,1,0.9,1.1c0.1,0,0.2,0,0.2,0h2.1
			l-0.1,4.2l-4.8-0.1c-2.3,0-3.2-1-3.2-3.3l0.2-12c0-3.6-0.6-6.4-4.7-6.5c-3.8-0.1-7.2,2.5-8.2,6.2c-0.4,1.1-0.5,2.3-0.5,3.4
			l-0.2,12l-4.9-0.1L463.2,826.3z"/>
		<path class="st3" d="M495.2,826.2c0.1-0.5-0.3-1-0.9-1.1c-0.1,0-0.2,0-0.2,0l-2.1,0.1l-0.2-4.2l4.8-0.2c2.3-0.1,3.3,0.8,3.4,3.1
			l0.9,17c0,0.6,0.4,1,0.9,1.1c0.1,0,0.2,0,0.2,0l2.1-0.1l0.2,4.2l-4.8,0.2c-2.3,0.1-3.3-0.8-3.4-3.1L495.2,826.2z M494.5,810.8
			l4.4-0.2l0.3,5.1l-4.4,0.2L494.5,810.8z"/>
		<path class="st4" d="M495.2,826.2c0.1-0.5-0.3-1-0.9-1.1c-0.1,0-0.2,0-0.2,0l-2.1,0.1l-0.2-4.2l4.8-0.2c2.3-0.1,3.3,0.8,3.4,3.1
			l0.9,17c0,0.6,0.4,1,0.9,1.1c0.1,0,0.2,0,0.2,0l2.1-0.1l0.2,4.2l-4.8,0.2c-2.3,0.1-3.3-0.8-3.4-3.1L495.2,826.2z M494.5,810.8
			l4.4-0.2l0.3,5.1l-4.4,0.2L494.5,810.8z"/>
		<path class="st3" d="M522.3,828.3l1.1-0.1V828c-0.5-4.5-2.3-5.9-6.3-5.5c-1.2,0.1-4.1,0.8-4,2.4l0.2,1.5l-4.6,0.5l-0.3-2.5
			c-0.5-4.2,5.8-5.5,8.3-5.7c8.2-0.9,10.9,3.2,11.5,8.8l1.2,10.8c0,0.6,0.4,1,1,1c0.1,0,0.2,0,0.2,0l2.1-0.2l0.5,4.2l-4.6,0.5
			c-2.3,0.2-3.3-0.8-3.5-2.6c-0.1-0.5-0.1-1-0.1-1.5h-0.1c-1.1,3.3-4.1,5.6-7.5,5.9c-4.4,0.5-8.9-1.7-9.5-6.8
			C507,830.5,518,828.8,522.3,828.3 M518,841.5c4.1-0.5,6.3-5.1,5.9-8.8l-0.1-0.9l-1.2,0.1c-3.7,0.4-10.3,1.3-9.8,6
			C513,840,514.8,841.8,518,841.5"/>
		<path class="st4" d="M522.3,828.3l1.1-0.1V828c-0.5-4.5-2.3-5.9-6.3-5.5c-1.2,0.1-4.1,0.8-4,2.4l0.2,1.5l-4.6,0.5l-0.3-2.5
			c-0.5-4.2,5.8-5.5,8.3-5.7c8.2-0.9,10.9,3.2,11.5,8.8l1.2,10.8c0,0.6,0.4,1,1,1c0.1,0,0.2,0,0.2,0l2.1-0.2l0.5,4.2l-4.6,0.5
			c-2.3,0.2-3.3-0.8-3.5-2.6c-0.1-0.5-0.1-1-0.1-1.5h-0.1c-1.1,3.3-4.1,5.6-7.5,5.9c-4.4,0.5-8.9-1.7-9.5-6.8
			C507,830.5,518,828.8,522.3,828.3z M518,841.5c4.1-0.5,6.3-5.1,5.9-8.8l-0.1-0.9l-1.2,0.1c-3.7,0.4-10.3,1.3-9.8,6
			C513,840,514.8,841.8,518,841.5z"/>
		<path class="st3" d="M536.3,822.5c-0.1-0.5-0.5-1-1.1-0.9c-0.1,0-0.2,0-0.2,0.1l-2,0.4l-0.9-4.1l4.6-1c2.2-0.5,3.4,0.2,3.8,2.1
			l0.2,0.9c0.2,0.8,0.3,1.4,0.3,1.4h0.1c0.8-3.7,3.6-6.7,7.3-7.6c4.2-0.9,7.1,0.5,8.7,4h0.1c0.9-3.8,3.9-6.7,7.7-7.6
			c5.6-1.2,9,1.4,10.3,7.8l2.3,10.8c0.1,0.5,0.5,1,1.1,0.9c0.1,0,0.2,0,0.2-0.1l2-0.4l0.9,4.1l-4.7,1c-2.2,0.5-3.4-0.2-3.8-2.5
			l-2.6-11.8c-0.8-3.5-2.1-6.1-5.8-5.3c-3.5,0.8-5.5,4.3-5.6,8c0,1.2,0.1,2.3,0.3,3.5l2.5,11.4l-4.8,1l-3.2-15
			c-0.7-3.2-1.8-6.2-5.7-5.3c-3.7,0.8-5.5,4.4-5.7,8.2c0,1.1,0.1,2.2,0.3,3.3l2.5,11.4l-4.8,1L536.3,822.5z"/>
		<path class="st4" d="M536.3,822.5c-0.1-0.5-0.5-1-1.1-0.9c-0.1,0-0.2,0-0.2,0.1l-2,0.4l-0.9-4.1l4.6-1c2.2-0.5,3.4,0.2,3.8,2.1
			l0.2,0.9c0.2,0.8,0.3,1.4,0.3,1.4h0.1c0.8-3.7,3.6-6.7,7.3-7.6c4.2-0.9,7.1,0.5,8.7,4h0.1c0.9-3.8,3.9-6.7,7.7-7.6
			c5.6-1.2,9,1.4,10.3,7.8l2.3,10.8c0.1,0.5,0.5,1,1.1,0.9c0.1,0,0.2,0,0.2-0.1l2-0.4l0.9,4.1l-4.7,1c-2.2,0.5-3.4-0.2-3.8-2.5
			l-2.6-11.8c-0.8-3.5-2.1-6.1-5.8-5.3c-3.5,0.8-5.5,4.3-5.6,8c0,1.2,0.1,2.3,0.3,3.5l2.5,11.4l-4.8,1l-3.2-15
			c-0.7-3.2-1.8-6.2-5.7-5.3c-3.7,0.8-5.5,4.4-5.7,8.2c0,1.1,0.1,2.2,0.3,3.3l2.5,11.4l-4.8,1L536.3,822.5z"/>
		<path class="st3" d="M586.1,824c2.6,1.6,5.6,2,8.5,1.2c2.2-0.7,3.9-2.4,3.2-4.5c-1.4-4.4-14.5,0.4-17.1-7.4
			c-1.5-4.7,1.9-8.2,6.8-9.8c2.9-1,8.3-1.6,9.5,2.1l0.8,2.3l-4.2,1.4l-0.4-1.2c-0.5-1.4-2.8-1.4-4.3-0.9c-2.7,0.9-4.2,2.4-3.6,4.3
			c1.5,4.6,14.4-0.7,17.1,7.4c1.4,4.3-1.5,8.4-6.6,10c-3.7,1.3-7.8,0.9-11.1-1.1L586.1,824z"/>
		<path class="st4" d="M586.1,824c2.6,1.6,5.6,2,8.5,1.2c2.2-0.7,3.9-2.4,3.2-4.5c-1.4-4.4-14.5,0.4-17.1-7.4
			c-1.5-4.7,1.9-8.2,6.8-9.8c2.9-1,8.3-1.6,9.5,2.1l0.8,2.3l-4.2,1.4l-0.4-1.2c-0.5-1.4-2.8-1.4-4.3-0.9c-2.7,0.9-4.2,2.4-3.6,4.3
			c1.5,4.6,14.4-0.7,17.1,7.4c1.4,4.3-1.5,8.4-6.6,10c-3.7,1.3-7.8,0.9-11.1-1.1L586.1,824z"/>
		<path class="st3" d="M622.6,790c5.8-2.7,9.1,0.2,9.1,0.2h0.1c0,0-0.2-0.4-0.3-0.7c-0.6-1.4-0.3-2.7,1.5-3.5l4.3-2l1.7,3.8
			l-1.8,0.8c-0.5,0.2-0.8,0.7-0.7,1.3c0,0,0,0.1,0.1,0.1l8,17.6c3.5,7.7-1,13.3-6.9,16c-2.8,1.2-5.8,1.8-8.8,1.7l-0.1-4.3
			c2.4,0.1,4.8-0.4,7.1-1.3c4-1.8,6.5-5.2,4.4-9.8l-0.7-1.6c-0.3-0.7-0.6-1.5-0.6-1.5h-0.1c-0.3,2.9-1.9,5.2-5.3,6.7
			c-6.4,2.9-12.8-0.5-15.8-7.2S616.1,793,622.6,790 M635.1,798.4c-2.8-6.1-6.6-6.5-10.1-4.8c-4,1.8-5,5.8-2.8,10.6s6.2,7,10.4,5.1
			C635.8,807.8,637.9,804.5,635.1,798.4"/>
		<path class="st4" d="M622.6,790c5.8-2.7,9.1,0.2,9.1,0.2h0.1c0,0-0.2-0.4-0.3-0.7c-0.6-1.4-0.3-2.7,1.5-3.5l4.3-2l1.7,3.8
			l-1.8,0.8c-0.5,0.2-0.8,0.7-0.7,1.3c0,0,0,0.1,0.1,0.1l8,17.6c3.5,7.7-1,13.3-6.9,16c-2.8,1.2-5.8,1.8-8.8,1.7l-0.1-4.3
			c2.4,0.1,4.8-0.4,7.1-1.3c4-1.8,6.5-5.2,4.4-9.8l-0.7-1.6c-0.3-0.7-0.6-1.5-0.6-1.5h-0.1c-0.3,2.9-1.9,5.2-5.3,6.7
			c-6.4,2.9-12.8-0.5-15.8-7.2S616,793,622.6,790z M635.2,798.4c-2.8-6.1-6.6-6.5-10.1-4.8c-4,1.8-5,5.8-2.8,10.6s6.2,7,10.4,5.1
			C635.8,807.8,637.9,804.5,635.2,798.4z"/>
		<path class="st3" d="M658.8,808.6c1.7-1,2.4-3,2.1-5.4l-0.3-3L643,786.8c-0.5-0.5-1.3-0.5-1.9-0.1l-0.5,0.3l-2-3.7l2.5-1.4
			c1.8-1,2.7-0.9,4.4,0.5l12.1,9.8c0.8,0.7,1.6,1.5,2.3,2.2l0.1,0c-0.3-1-0.6-2.1-0.8-3.1l-2.4-15.2c-0.3-2.1,0.2-3.1,2-4.1l2.6-1.4
			l2,3.7l-0.6,0.3c-0.7,0.3-1.1,1-0.9,1.7l3.4,26.7c0.6,4.2-1.1,7.5-4.2,9.3c-2,1.1-4.3,1.4-6.5,0.7v-4.1
			C655.9,809.3,657.4,809.2,658.8,808.6"/>
		<path class="st4" d="M658.8,808.6c1.7-1,2.4-3,2.1-5.4l-0.3-3L643,786.8c-0.5-0.5-1.3-0.5-1.9-0.1l-0.5,0.3l-2-3.7l2.5-1.4
			c1.8-1,2.7-0.9,4.4,0.5l12.1,9.8c0.8,0.7,1.6,1.5,2.3,2.2l0.1,0c-0.3-1-0.6-2.1-0.8-3.1l-2.4-15.2c-0.3-2.1,0.2-3.1,2-4.1l2.6-1.4
			l2,3.7l-0.6,0.3c-0.7,0.3-1.1,1-0.9,1.7l3.4,26.7c0.6,4.2-1.1,7.5-4.2,9.3c-2,1.1-4.3,1.4-6.5,0.7v-4.1
			C656,809.3,657.5,809.2,658.8,808.6z"/>
		<path class="st3" d="M666.9,773.1c-0.5-0.5-1.3-0.5-1.9,0l-0.4,0.3l-2.3-3.5l2.1-1.4c1.9-1.3,2.9-1.3,4.7,0l12.8,9.2
			c0.9,0.7,1.8,1.5,2.6,2.3l0.1-0.1c-0.4-1.1-0.8-2.2-1.1-3.3l-3.6-15.3c-0.5-2.1,0-3.1,1.8-4.3l2-1.3l2.3,3.5l-0.4,0.3
			c-0.7,0.3-1,1-0.8,1.8l4.8,21.3l-4.7,3.2L666.9,773.1z"/>
		<path class="st4" d="M666.9,773.1c-0.5-0.5-1.3-0.5-1.9,0l-0.4,0.3l-2.3-3.5l2.1-1.4c1.9-1.3,2.9-1.3,4.7,0l12.8,9.2
			c0.9,0.7,1.8,1.5,2.6,2.3l0.1-0.1c-0.4-1.1-0.8-2.2-1.1-3.3l-3.6-15.3c-0.5-2.1,0-3.1,1.8-4.3l2-1.3l2.3,3.5l-0.4,0.3
			c-0.7,0.3-1,1-0.8,1.8l4.8,21.3l-4.7,3.2L666.9,773.1z"/>
		<path class="st3" d="M690.5,757.2c-0.3-0.5-0.9-0.6-1.4-0.3c-0.1,0-0.1,0.1-0.2,0.1l-1.6,1.3l-2.6-3.3l3.8-3
			c1.8-1.5,3.2-1.3,4.5,0.4l7.5,9.5c2.2,2.8,4.5,4.5,7.7,2c4.1-3.3,3.7-8.8,0.5-12.8l-7.5-9.4l3.8-3.1l12.6,15.9
			c0.3,0.5,0.9,0.6,1.4,0.3c0.1,0,0.1-0.1,0.2-0.1l1.6-1.3l2.6,3.3l-3.7,2.9c-1.7,1.3-3.2,1.2-4.3-0.2l-0.6-0.8
			c-0.5-0.6-0.9-1.2-0.9-1.2l-0.1,0.1c0.9,3.9-0.5,8-3.7,10.5c-4.5,3.6-8.7,3-12.9-2.3L690.5,757.2z M685.6,743.3l10-8l2.1,2.7
			l-10,8L685.6,743.3z"/>
		<path class="st4" d="M690.5,757.2c-0.3-0.5-0.9-0.6-1.4-0.3c-0.1,0-0.1,0.1-0.2,0.1l-1.6,1.3l-2.6-3.3l3.8-3
			c1.8-1.5,3.2-1.3,4.5,0.4l7.5,9.5c2.2,2.8,4.5,4.5,7.7,2c4.1-3.3,3.7-8.8,0.5-12.8l-7.5-9.4l3.8-3.1l12.6,15.9
			c0.3,0.5,0.9,0.6,1.4,0.3c0.1,0,0.1-0.1,0.2-0.1l1.6-1.3l2.6,3.3l-3.7,2.9c-1.7,1.3-3.2,1.2-4.3-0.2l-0.6-0.8
			c-0.5-0.6-0.9-1.2-0.9-1.2l-0.1,0.1c0.9,3.9-0.5,8-3.7,10.5c-4.5,3.6-8.7,3-12.9-2.3L690.5,757.2z M685.6,743.3l10-8l2.1,2.7
			l-10,8L685.6,743.3z"/>
		<path class="st3" d="M715,737.2c-0.3-0.4-1-0.5-1.4-0.2c-0.1,0-0.1,0.1-0.2,0.2l-1.5,1.4l-2.9-3l3.4-3.2c1.6-1.5,3-1.5,4.3-0.2
			l0.7,0.7c0.3,0.4,0.6,0.7,0.9,1.1l0.1-0.1c-1.2-3.9-0.1-8.1,2.9-10.9c4.4-4.2,8.6-3.7,13.1,1l7.6,8c0.3,0.4,1,0.5,1.4,0.2
			c0.1,0,0.1-0.1,0.2-0.2l1.5-1.4l2.9,3l-3.6,3.4c-1.6,1.6-3,1.5-4.6-0.1l-8.3-8.7c-2.5-2.6-4.9-4.2-7.9-1.3
			c-2.8,2.6-3.4,6.8-1.5,10.1c0.5,1,1.2,2,2,2.8l8.3,8.7l-3.5,3.4L715,737.2z"/>
		<path class="st4" d="M715,737.2c-0.3-0.4-1-0.5-1.4-0.2c-0.1,0-0.1,0.1-0.2,0.2l-1.5,1.4l-2.9-3l3.4-3.2c1.6-1.5,3-1.5,4.3-0.2
			l0.7,0.7c0.3,0.4,0.6,0.7,0.9,1.1l0.1-0.1c-1.2-3.9-0.1-8.1,2.9-10.9c4.4-4.2,8.6-3.7,13.1,1l7.6,8c0.3,0.4,1,0.5,1.4,0.2
			c0.1,0,0.1-0.1,0.2-0.2l1.5-1.4l2.9,3l-3.6,3.4c-1.6,1.6-3,1.5-4.6-0.1l-8.3-8.7c-2.5-2.6-4.9-4.2-7.9-1.3
			c-2.8,2.6-3.4,6.8-1.5,10.1c0.5,1,1.2,2,2,2.8l8.3,8.7l-3.5,3.4L715,737.2z"/>
		<path class="st3" d="M749.5,708.1l0.7-0.8l-0.2-0.2c-3.4-3-5.7-2.8-8.3,0.2c-0.8,0.9-2.6,3.3-1.3,4.4l1.1,1l-3,3.4l-1.9-1.7
			c-3.1-2.8,0.6-8,2.3-9.8c5.5-6.2,10.2-5,14.5-1.2l8.1,7.2c0.4,0.4,1,0.4,1.4,0.1c0.1-0.1,0.1-0.1,0.2-0.2l1.4-1.5l3.1,2.8
			l-3.1,3.4c-1.5,1.7-2.9,1.6-4.3,0.4c-0.4-0.3-0.7-0.7-1.1-1.1l-0.1,0.1c1.4,3.2,0.8,6.9-1.6,9.4c-2.9,3.3-7.8,4.7-11.6,1.3
			C739.7,720,746.7,711.3,749.5,708.1 M755.2,720.7c2.8-3.1,1.3-8-1.6-10.5l-0.6-0.6l-0.8,0.9c-2.5,2.8-6.7,7.9-3.2,11
			C750.5,723,753.1,723.1,755.2,720.7"/>
		<path class="st4" d="M749.5,708.1l0.7-0.8l-0.2-0.2c-3.4-3-5.7-2.8-8.3,0.2c-0.8,0.9-2.6,3.3-1.3,4.4l1.1,1l-3,3.4l-1.9-1.7
			c-3.1-2.8,0.6-8,2.3-9.8c5.5-6.2,10.2-5,14.5-1.2l8.1,7.2c0.4,0.4,1,0.4,1.4,0.1c0.1-0.1,0.1-0.1,0.2-0.2l1.4-1.5l3.1,2.8
			l-3.1,3.4c-1.5,1.7-2.9,1.6-4.3,0.4c-0.4-0.3-0.7-0.7-1.1-1.1l-0.1,0.1c1.4,3.2,0.8,6.9-1.6,9.4c-2.9,3.3-7.8,4.7-11.6,1.3
			C739.7,720,746.7,711.3,749.5,708.1z M755.2,720.7c2.8-3.1,1.3-8-1.6-10.5l-0.6-0.6l-0.8,0.9c-2.5,2.8-6.7,7.9-3.2,11
			C750.5,723,753,723.1,755.2,720.7L755.2,720.7z"/>
		<path class="st3" d="M756.1,694.3c-0.4-0.4-1-0.3-1.4,0.1c-0.1,0.1-0.1,0.1-0.1,0.2l-1.2,1.7l-3.4-2.4l2.7-3.8
			c1.3-1.8,2.7-2.1,4.2-1l0.8,0.6c0.7,0.5,1.2,0.9,1.2,0.9l0.1-0.1c-1.9-3.3-1.8-7.4,0.3-10.5c2.5-3.5,5.6-4.4,9.2-2.9l0.1-0.1
			c-1.9-3.4-1.6-7.6,0.6-10.8c3.3-4.7,7.6-5,12.9-1.2l9,6.4c0.4,0.4,1,0.3,1.4-0.1c0.1-0.1,0.1-0.1,0.1-0.2l1.2-1.7l3.4,2.4
			l-2.8,3.9c-1.3,1.8-2.7,2.1-4.5,0.8l-9.8-7c-2.9-2.1-5.6-3.2-7.8-0.1c-2.1,2.9-1.1,6.9,1.2,9.7c0.8,0.9,1.6,1.7,2.6,2.3l9.5,6.8
			l-2.8,4l-12.4-8.9c-2.7-1.9-5.5-3.3-7.8-0.2s-1.2,7,1.2,9.9c0.7,0.8,1.6,1.6,2.5,2.2l9.5,6.8l-2.8,4L756.1,694.3z"/>
		<path class="st4" d="M756.1,694.3c-0.4-0.4-1-0.3-1.4,0.1c-0.1,0.1-0.1,0.1-0.1,0.2l-1.2,1.7l-3.4-2.4l2.7-3.8
			c1.3-1.8,2.7-2.1,4.2-1l0.8,0.6c0.7,0.5,1.2,0.9,1.2,0.9l0.1-0.1c-1.9-3.3-1.8-7.4,0.3-10.5c2.5-3.5,5.6-4.4,9.2-2.9l0.1-0.1
			c-1.9-3.4-1.6-7.6,0.6-10.8c3.3-4.7,7.6-5,12.9-1.2l9,6.4c0.4,0.4,1,0.3,1.4-0.1c0.1-0.1,0.1-0.1,0.1-0.2l1.2-1.7l3.4,2.4
			l-2.8,3.9c-1.3,1.8-2.7,2.1-4.5,0.8l-9.8-7c-2.9-2.1-5.6-3.2-7.8-0.1c-2.1,2.9-1.1,6.9,1.2,9.7c0.8,0.9,1.6,1.7,2.6,2.3l9.5,6.8
			l-2.8,4l-12.4-8.9c-2.7-1.9-5.5-3.3-7.8-0.2s-1.2,7,1.2,9.9c0.7,0.8,1.6,1.6,2.5,2.2l9.5,6.8l-2.8,4L756.1,694.3z"/>
		<path class="st3" d="M794,661.9c0,0,4.8-0.8,7.1-4.8c1.2-2.1,1.3-4.4-0.6-5.5c-4-2.3-10.5,10.1-17.6,6c-4.2-2.4-4.1-7.3-1.5-11.8
			c1.5-2.7,5.1-6.8,8.5-4.8l2.1,1.2l-2.2,3.8l-1.1-0.6c-1.3-0.8-3,0.9-3.8,2.2c-1.4,2.5-1.5,4.6,0.3,5.6c4.2,2.4,10.2-10.2,17.6-6
			c3.9,2.3,4.5,7.2,1.8,11.9c-1.9,3.4-5.2,5.9-9,6.6L794,661.9z"/>
		<path class="st4" d="M794,661.9c0,0,4.8-0.8,7.1-4.8c1.2-2.1,1.3-4.4-0.6-5.5c-4-2.3-10.5,10.1-17.6,6c-4.2-2.4-4.1-7.3-1.5-11.8
			c1.5-2.7,5.1-6.8,8.5-4.8l2.1,1.2l-2.2,3.8l-1.1-0.6c-1.3-0.8-3,0.9-3.8,2.2c-1.4,2.5-1.5,4.6,0.3,5.6c4.2,2.4,10.2-10.2,17.6-6
			c3.9,2.3,4.5,7.2,1.8,11.9c-1.9,3.4-5.2,5.9-9,6.6L794,661.9z"/>
		<path class="st3" d="M162.5,427.7l0.3-1.1c0.3-1.5,0.2-2.3-1.2-3.1L116.8,394l2-8.6l53.1-6.7c1.6-0.1,2.1-0.9,2.4-2.3l0.3-1.2
			l7,1.6l-1.1,4.6c-0.9,4.1-2.2,5.2-6.3,5.6l-12.9,1.6l-4.9,21.3l10.9,7.1c3.4,2.3,4.1,3.8,3.2,7.9l-1.1,4.5L162.5,427.7z
			 M154.1,389l-19.1,2.2c-3.3,0.4-8.6,0.4-8.6,0.4v0.2c0,0,4.8,2.3,7.6,4.1l16.1,10.4L154.1,389z"/>
		<path class="st3" d="M141,339.6l-4.5,11c-0.5,0.8-0.2,1.8,0.6,2.3c0.1,0.1,0.3,0.1,0.4,0.2l3.5,1.4l-2.8,6.9l-7.2-3
			c-3.5-1.4-4.2-3.1-2.8-6.6l15.4-37.6c1.4-3.5,3.1-4.2,6.6-2.8l7.2,3l-2.8,6.9l-3.5-1.4c-0.8-0.5-1.8-0.2-2.2,0.6
			c-0.1,0.1-0.1,0.3-0.2,0.4l-4.5,11l48.2,19.7l-3.2,7.8L141,339.6z"/>
		<path class="st3" d="M168.2,269.3c7.7-11.9,17.6-13.8,17.6-13.8l2.5,7.4c-5.6,1.9-10.4,5.6-13.6,10.5c-6.4,9.9-3.6,23.1,7.4,30.2
			c11.6,7.5,24.5,4.6,31-5.5c3.4-5.4,4.5-12,3-18.2l-5-3.2c-0.7-0.6-1.8-0.5-2.3,0.2c-0.1,0.1-0.1,0.2-0.2,0.3l-2,3l-6.1-3.9
			l4.2-6.6c2-3.2,4.3-3.6,7.4-1.6l20.1,13l-4,6.2l-3.1-2c-1.1-0.7-2.1-1.4-2.1-1.4l-0.1,0.1c1.3,6.8-0.2,13.7-4,19.4
			c-8.6,13.2-26.1,17.5-41.7,7.4C163.2,301.6,159,283.5,168.2,269.3"/>
		<path class="st3" d="M232.7,269.3l0.8-0.8c1.1-1.1,1.4-1.9,0.6-3.3l-22.9-48.4l6.2-6.3l48.8,21.9c1.4,0.7,2.3,0.3,3.3-0.7l0.9-0.9
			l5.1,5.1l-3.3,3.4c-2.9,3-4.6,3.2-8.3,1.5l-11.8-5.4L237,250.9l5.6,11.7c1.8,3.7,1.5,5.4-1.4,8.4l-3.2,3.3L232.7,269.3z
			 M245.7,231.9l-17.4-8c-3-1.4-7.6-4.1-7.6-4.1l-0.1,0.1c0,0,2.9,4.5,4.4,7.4l8.4,17.3L245.7,231.9z"/>
		<path class="st3" d="M256.8,187.6c-0.4-0.8-1.4-1.1-2.2-0.7c-0.1,0.1-0.3,0.2-0.4,0.3l-2.9,2.1l-4.2-5.9l6.9-4.9
			c3.1-2.2,5.3-1.8,7.5,1.2l26.1,36.5c0.5,0.8,1.5,1.1,2.3,0.6c0.1-0.1,0.2-0.1,0.3-0.2l13.3-9.5c0.8-0.5,1.1-1.5,0.6-2.3
			c-0.1-0.1-0.1-0.2-0.2-0.3l-2.2-3.1l6.2-4.4l4.4,6.1c2.2,3.1,1.8,5.3-1.2,7.5l-20.6,14.8c-3.1,2.2-5.3,1.8-7.5-1.2L256.8,187.6z"
			/>
		<path class="st3" d="M347.1,183.3l5.3-2.3l-17.6-41.2l-5.3,2.3l-2.8-6.6l18-7.7l2.8,6.6l-5.3,2.3l17.6,41.2l5.3-2.3l2.8,6.6
			c-1,2-3.2,6.3-2,9c1.2,2.9,5.7,1.5,5.7,1.5l0.8,6.5c0,0-9.3,3.2-12.2-3.5c-1.6-3.9-0.1-7.9,1.4-10.6l-0.1-0.2l-11.6,4.9
			L347.1,183.3z"/>
		<path class="st3" d="M427,105.3c14-2.1,22,4.2,22,4.2l-3.9,6.8c-5.1-3-11-4.1-16.9-3.3c-11.7,1.7-19.7,12.5-17.8,25.5
			c2,13.6,12.7,21.4,24.6,19.7c6.3-1,12-4.5,15.6-9.8l-0.9-5.9c0-0.9-0.8-1.6-1.7-1.6c-0.1,0-0.2,0-0.4,0.1l-3.6,0.5l-1-7.1l7.7-1.1
			c3.7-0.6,5.5,0.8,6.1,4.5l3.5,23.7l-7.3,1.1l-0.5-3.7c-0.2-1.2-0.3-2.5-0.3-2.5h-0.2c-4.2,5.4-10.4,8.9-17.2,9.8
			c-15.6,2.3-30.4-8.1-33.1-26.4C399.4,122.9,410.3,107.7,427,105.3"/>
		<path class="st3" d="M467.4,153.9l1.2,0.1c1.5,0.1,2.3-0.2,2.9-1.7l21-49.2l8.8,0.4l16,51.1c0.4,1.5,1.2,1.9,2.7,2l1.3,0.1
			l-0.4,7.2l-4.7-0.2c-4.2-0.2-5.5-1.3-6.6-5.2l-3.8-12.4l-21.8-1.1l-5,11.9c-1.6,3.8-3,4.7-7.2,4.5l-4.6-0.2L467.4,153.9z
			 M504,138.8l-5.6-18.4c-0.9-3.2-1.9-8.4-1.9-8.4h-0.2c0,0-1.4,5.1-2.7,8.2l-7.4,17.7L504,138.8z"/>
		<path class="st3" d="M528,156.8l2.8,0.7c0.9,0.3,1.9-0.1,2.2-1c0-0.1,0.1-0.2,0.1-0.3l17-47.5l8.4,2.2l5.3,34c0.5,3.4,0.9,8,0.9,8
			l0.2,0.1c0,0,2.6-3.8,4.8-6.5l21.6-26.7l8.3,2.2l-9.2,49.6c-0.3,0.9,0.2,1.9,1.1,2.2c0.1,0,0.2,0.1,0.3,0.1l2.7,0.7l-1.9,7
			l-7.2-1.9c-3.7-1-4.5-2.9-3.8-6.6l5.8-30.9c0.7-3.5,2.1-8.5,2.1-8.5h-0.2c0,0-3.1,4.9-5.3,7.6l-18.4,22l-6.8-1.8l-4.8-28.3
			c-0.6-3.4-0.8-9.3-0.8-9.3H553c0,0-1.3,5.1-2.5,8.5l-10.4,29.6c-1.2,3.6-2.9,4.8-6.7,3.8l-7.2-1.9L528,156.8z"/>
		<path class="st3" d="M633.9,144.9l-10.7-5.2c-0.8-0.5-1.8-0.3-2.3,0.5c-0.1,0.1-0.1,0.3-0.2,0.4l-1.7,3.4l-6.7-3.3l3.4-7
			c1.7-3.4,3.3-4,6.7-2.3l36.7,17.9c3.4,1.7,4,3.3,2.3,6.7l-3.4,7l-6.7-3.3l1.7-3.4c0.5-0.8,0.3-1.8-0.5-2.3
			c-0.1-0.1-0.3-0.1-0.4-0.2l-10.7-5.2l-22.8,46.8l-7.6-3.7L633.9,144.9z"/>
		<path class="st3" d="M639.5,197.2l1,0.7c1.2,0.9,2,1,3.3,0.1l44-30.5l7.2,5.1l-13.6,51.8c-0.5,1.5,0,2.3,1.2,3.1l1,0.7l-4.2,5.9
			c-2.3,0.2-7,0.6-8.7,3c-1.8,2.6,1.7,5.6,1.7,5.6l-5.2,4c0,0-7.5-6.2-3.4-12.1c2.6-3.6,7.2-4.4,10.1-4.5l0.1-0.1
			c-2.1-1.9-2.2-3.4-1.3-6.6l3.3-12.5l-17.9-12.5l-10.6,7.4c-3.4,2.4-5.1,2.4-8.5,0l-3.8-2.6L639.5,197.2z M678.5,203.9l5.1-18.5
			c0.9-3.2,2.8-8.2,2.8-8.2l-0.1-0.1c0,0-4,3.6-6.6,5.5l-15.7,11.1L678.5,203.9z"/>
	</g>
</g>
</svg>
